<mxfile host="Electron" modified="2024-06-07T12:34:02.044Z" agent="Mozilla/5.0 (X11; Linux x86_64) AppleWebKit/537.36 (KHTML, like Gecko) draw.io/24.4.0 Chrome/122.0.6261.156 Electron/29.4.0 Safari/537.36" etag="b82mfkD_KE02zNlGvPbh" version="24.3.1" type="device">
  <diagram name="Page-1" id="-EXrJuOlf7eWjyKeQtRF">
    <mxGraphModel dx="1418" dy="872" grid="1" gridSize="10" guides="1" tooltips="1" connect="1" arrows="1" fold="1" page="1" pageScale="1" pageWidth="1169" pageHeight="827" math="0" shadow="0">
      <root>
        <mxCell id="0" />
        <mxCell id="1" parent="0" />
        <mxCell id="au3N3AJ27wBfpIJDLOcN-34" value="" style="endArrow=none;html=1;rounded=0;entryX=0.423;entryY=0.021;entryDx=0;entryDy=0;entryPerimeter=0;" parent="1" target="au3N3AJ27wBfpIJDLOcN-9" edge="1">
          <mxGeometry width="50" height="50" relative="1" as="geometry">
            <mxPoint x="850" y="320" as="sourcePoint" />
            <mxPoint x="620" y="440" as="targetPoint" />
          </mxGeometry>
        </mxCell>
        <mxCell id="au3N3AJ27wBfpIJDLOcN-2" value="OAI UE" style="rounded=0;whiteSpace=wrap;html=1;" parent="1" vertex="1">
          <mxGeometry x="160" y="520" width="120" height="60" as="geometry" />
        </mxCell>
        <mxCell id="au3N3AJ27wBfpIJDLOcN-3" value="OAI gNB" style="rounded=0;whiteSpace=wrap;html=1;" parent="1" vertex="1">
          <mxGeometry x="520" y="520" width="120" height="60" as="geometry" />
        </mxCell>
        <mxCell id="au3N3AJ27wBfpIJDLOcN-6" value="" style="endArrow=diamond;html=1;rounded=0;exitX=1;exitY=0.5;exitDx=0;exitDy=0;endFill=0;startArrow=diamond;startFill=0;entryX=0;entryY=0.5;entryDx=0;entryDy=0;dashed=1;" parent="1" source="au3N3AJ27wBfpIJDLOcN-2" target="au3N3AJ27wBfpIJDLOcN-3" edge="1">
          <mxGeometry width="50" height="50" relative="1" as="geometry">
            <mxPoint x="370" y="600" as="sourcePoint" />
            <mxPoint x="400" y="550" as="targetPoint" />
          </mxGeometry>
        </mxCell>
        <mxCell id="au3N3AJ27wBfpIJDLOcN-7" value="OAI RF Simulator&lt;br&gt;via 5gs-bridge" style="edgeLabel;html=1;align=center;verticalAlign=middle;resizable=0;points=[];" parent="au3N3AJ27wBfpIJDLOcN-6" vertex="1" connectable="0">
          <mxGeometry x="-0.1967" y="1" relative="1" as="geometry">
            <mxPoint x="12" y="-19" as="offset" />
          </mxGeometry>
        </mxCell>
        <mxCell id="au3N3AJ27wBfpIJDLOcN-9" value="Free5GC UPF" style="rounded=0;whiteSpace=wrap;html=1;" parent="1" vertex="1">
          <mxGeometry x="800" y="520" width="120" height="60" as="geometry" />
        </mxCell>
        <mxCell id="au3N3AJ27wBfpIJDLOcN-12" value="oaitun_ue1&lt;br&gt;10.60.0.1" style="text;html=1;strokeColor=none;fillColor=none;align=center;verticalAlign=middle;whiteSpace=wrap;rounded=0;" parent="1" vertex="1">
          <mxGeometry x="290" y="560" width="60" height="30" as="geometry" />
        </mxCell>
        <mxCell id="au3N3AJ27wBfpIJDLOcN-13" value="upfgtp" style="text;html=1;strokeColor=none;fillColor=none;align=center;verticalAlign=middle;whiteSpace=wrap;rounded=0;" parent="1" vertex="1">
          <mxGeometry x="750" y="560" width="50" height="30" as="geometry" />
        </mxCell>
        <mxCell id="au3N3AJ27wBfpIJDLOcN-14" value="" style="curved=1;endArrow=classic;html=1;rounded=0;exitX=1;exitY=0.5;exitDx=0;exitDy=0;entryX=0;entryY=0.5;entryDx=0;entryDy=0;dashed=1;startArrow=classic;startFill=1;" parent="1" source="au3N3AJ27wBfpIJDLOcN-12" target="au3N3AJ27wBfpIJDLOcN-13" edge="1">
          <mxGeometry width="50" height="50" relative="1" as="geometry">
            <mxPoint x="250" y="620" as="sourcePoint" />
            <mxPoint x="820" y="620" as="targetPoint" />
            <Array as="points">
              <mxPoint x="580" y="630" />
            </Array>
          </mxGeometry>
        </mxCell>
        <mxCell id="au3N3AJ27wBfpIJDLOcN-17" value="GTP tunnel&lt;br&gt;(only the UE end has an IP)" style="edgeLabel;html=1;align=center;verticalAlign=middle;resizable=0;points=[];" parent="au3N3AJ27wBfpIJDLOcN-14" vertex="1" connectable="0">
          <mxGeometry x="-0.0572" y="23" relative="1" as="geometry">
            <mxPoint x="18" y="21" as="offset" />
          </mxGeometry>
        </mxCell>
        <mxCell id="au3N3AJ27wBfpIJDLOcN-19" value="Free5GC WebUI" style="rounded=0;whiteSpace=wrap;html=1;" parent="1" vertex="1">
          <mxGeometry x="500" y="330" width="70" height="60" as="geometry" />
        </mxCell>
        <mxCell id="au3N3AJ27wBfpIJDLOcN-20" value="Free5GC NRF" style="rounded=0;whiteSpace=wrap;html=1;" parent="1" vertex="1">
          <mxGeometry x="680" y="250" width="70" height="60" as="geometry" />
        </mxCell>
        <mxCell id="au3N3AJ27wBfpIJDLOcN-21" value="Free5GC AMF" style="rounded=0;whiteSpace=wrap;html=1;" parent="1" vertex="1">
          <mxGeometry x="500" y="414" width="70" height="60" as="geometry" />
        </mxCell>
        <mxCell id="au3N3AJ27wBfpIJDLOcN-22" value="Free5GC AUSF" style="rounded=0;whiteSpace=wrap;html=1;" parent="1" vertex="1">
          <mxGeometry x="590" y="330" width="70" height="60" as="geometry" />
        </mxCell>
        <mxCell id="au3N3AJ27wBfpIJDLOcN-23" value="Free5GC NSSF" style="rounded=0;whiteSpace=wrap;html=1;" parent="1" vertex="1">
          <mxGeometry x="590" y="250" width="70" height="60" as="geometry" />
        </mxCell>
        <mxCell id="au3N3AJ27wBfpIJDLOcN-24" value="Free5GC PCF" style="rounded=0;whiteSpace=wrap;html=1;" parent="1" vertex="1">
          <mxGeometry x="770" y="250" width="70" height="60" as="geometry" />
        </mxCell>
        <mxCell id="au3N3AJ27wBfpIJDLOcN-25" value="Free5GC SMF" style="rounded=0;whiteSpace=wrap;html=1;" parent="1" vertex="1">
          <mxGeometry x="860" y="250" width="70" height="60" as="geometry" />
        </mxCell>
        <mxCell id="au3N3AJ27wBfpIJDLOcN-26" value="Free5GC UDM" style="rounded=0;whiteSpace=wrap;html=1;" parent="1" vertex="1">
          <mxGeometry x="680" y="330" width="70" height="60" as="geometry" />
        </mxCell>
        <mxCell id="au3N3AJ27wBfpIJDLOcN-27" value="Free5GC UDR" style="rounded=0;whiteSpace=wrap;html=1;" parent="1" vertex="1">
          <mxGeometry x="770" y="330" width="70" height="60" as="geometry" />
        </mxCell>
        <mxCell id="au3N3AJ27wBfpIJDLOcN-28" value="Free5GC CHF" style="rounded=0;whiteSpace=wrap;html=1;" parent="1" vertex="1">
          <mxGeometry x="860" y="330" width="70" height="60" as="geometry" />
        </mxCell>
        <mxCell id="au3N3AJ27wBfpIJDLOcN-29" value="Free5GC DB" style="rounded=0;whiteSpace=wrap;html=1;" parent="1" vertex="1">
          <mxGeometry x="500" y="250" width="70" height="60" as="geometry" />
        </mxCell>
        <mxCell id="au3N3AJ27wBfpIJDLOcN-35" value="5gs-bridge" style="edgeLabel;html=1;align=center;verticalAlign=middle;resizable=0;points=[];" parent="1" vertex="1" connectable="0">
          <mxGeometry x="714.9953846153848" y="490" as="geometry" />
        </mxCell>
        <mxCell id="jF5xONTF4jro53nfSV65-2" value="" style="rounded=0;whiteSpace=wrap;html=1;" parent="1" vertex="1">
          <mxGeometry x="160" y="269.6" width="70" height="20" as="geometry" />
        </mxCell>
        <mxCell id="jF5xONTF4jro53nfSV65-5" value="Docker Container" style="text;html=1;strokeColor=none;fillColor=none;align=center;verticalAlign=middle;whiteSpace=wrap;rounded=0;" parent="1" vertex="1">
          <mxGeometry x="240" y="264.6" width="100" height="30" as="geometry" />
        </mxCell>
        <mxCell id="jF5xONTF4jro53nfSV65-6" value="" style="endArrow=none;html=1;rounded=0;exitX=0.5;exitY=0;exitDx=0;exitDy=0;" parent="1" source="au3N3AJ27wBfpIJDLOcN-3" edge="1">
          <mxGeometry width="50" height="50" relative="1" as="geometry">
            <mxPoint x="580" y="480" as="sourcePoint" />
            <mxPoint x="580" y="320" as="targetPoint" />
          </mxGeometry>
        </mxCell>
        <mxCell id="jF5xONTF4jro53nfSV65-22" value="10.100.200.140" style="edgeLabel;html=1;align=center;verticalAlign=middle;resizable=0;points=[];" parent="jF5xONTF4jro53nfSV65-6" vertex="1" connectable="0">
          <mxGeometry x="-0.89" relative="1" as="geometry">
            <mxPoint x="45" as="offset" />
          </mxGeometry>
        </mxCell>
        <mxCell id="jF5xONTF4jro53nfSV65-8" value="" style="endArrow=none;html=1;rounded=0;" parent="1" edge="1">
          <mxGeometry width="50" height="50" relative="1" as="geometry">
            <mxPoint x="900" y="320" as="sourcePoint" />
            <mxPoint x="510" y="320" as="targetPoint" />
          </mxGeometry>
        </mxCell>
        <mxCell id="jF5xONTF4jro53nfSV65-9" value="" style="endArrow=none;html=1;rounded=0;entryX=0.5;entryY=1;entryDx=0;entryDy=0;exitX=0.5;exitY=0;exitDx=0;exitDy=0;" parent="1" source="au3N3AJ27wBfpIJDLOcN-19" target="au3N3AJ27wBfpIJDLOcN-29" edge="1">
          <mxGeometry width="50" height="50" relative="1" as="geometry">
            <mxPoint x="530" y="320" as="sourcePoint" />
            <mxPoint x="550" y="330" as="targetPoint" />
          </mxGeometry>
        </mxCell>
        <mxCell id="jF5xONTF4jro53nfSV65-11" value="" style="endArrow=none;html=1;rounded=0;entryX=0.5;entryY=1;entryDx=0;entryDy=0;exitX=0.5;exitY=0;exitDx=0;exitDy=0;" parent="1" source="au3N3AJ27wBfpIJDLOcN-22" target="au3N3AJ27wBfpIJDLOcN-23" edge="1">
          <mxGeometry width="50" height="50" relative="1" as="geometry">
            <mxPoint x="525" y="340" as="sourcePoint" />
            <mxPoint x="525" y="320" as="targetPoint" />
          </mxGeometry>
        </mxCell>
        <mxCell id="jF5xONTF4jro53nfSV65-12" value="" style="endArrow=none;html=1;rounded=0;entryX=0.5;entryY=1;entryDx=0;entryDy=0;exitX=0.5;exitY=0;exitDx=0;exitDy=0;" parent="1" source="au3N3AJ27wBfpIJDLOcN-26" target="au3N3AJ27wBfpIJDLOcN-20" edge="1">
          <mxGeometry width="50" height="50" relative="1" as="geometry">
            <mxPoint x="635" y="340" as="sourcePoint" />
            <mxPoint x="635" y="320" as="targetPoint" />
          </mxGeometry>
        </mxCell>
        <mxCell id="jF5xONTF4jro53nfSV65-13" value="" style="endArrow=none;html=1;rounded=0;entryX=0.5;entryY=1;entryDx=0;entryDy=0;exitX=0.5;exitY=0;exitDx=0;exitDy=0;" parent="1" source="au3N3AJ27wBfpIJDLOcN-27" target="au3N3AJ27wBfpIJDLOcN-24" edge="1">
          <mxGeometry width="50" height="50" relative="1" as="geometry">
            <mxPoint x="725" y="340" as="sourcePoint" />
            <mxPoint x="725" y="320" as="targetPoint" />
          </mxGeometry>
        </mxCell>
        <mxCell id="jF5xONTF4jro53nfSV65-14" value="" style="endArrow=none;html=1;rounded=0;entryX=0.5;entryY=1;entryDx=0;entryDy=0;exitX=0.5;exitY=0;exitDx=0;exitDy=0;" parent="1" source="au3N3AJ27wBfpIJDLOcN-28" target="au3N3AJ27wBfpIJDLOcN-25" edge="1">
          <mxGeometry width="50" height="50" relative="1" as="geometry">
            <mxPoint x="815" y="340" as="sourcePoint" />
            <mxPoint x="815" y="320" as="targetPoint" />
          </mxGeometry>
        </mxCell>
        <mxCell id="jF5xONTF4jro53nfSV65-15" value="" style="endArrow=none;html=1;rounded=0;exitX=1;exitY=0.5;exitDx=0;exitDy=0;" parent="1" source="au3N3AJ27wBfpIJDLOcN-21" edge="1">
          <mxGeometry width="50" height="50" relative="1" as="geometry">
            <mxPoint x="545" y="340" as="sourcePoint" />
            <mxPoint x="580" y="444" as="targetPoint" />
          </mxGeometry>
        </mxCell>
        <mxCell id="jF5xONTF4jro53nfSV65-18" value="" style="endArrow=none;html=1;rounded=0;" parent="1" edge="1">
          <mxGeometry width="50" height="50" relative="1" as="geometry">
            <mxPoint x="580" y="500" as="sourcePoint" />
            <mxPoint x="850" y="500" as="targetPoint" />
          </mxGeometry>
        </mxCell>
        <mxCell id="jF5xONTF4jro53nfSV65-19" value="" style="endArrow=none;html=1;rounded=0;" parent="1" edge="1">
          <mxGeometry width="50" height="50" relative="1" as="geometry">
            <mxPoint x="220" y="500" as="sourcePoint" />
            <mxPoint x="580" y="500" as="targetPoint" />
          </mxGeometry>
        </mxCell>
        <mxCell id="jF5xONTF4jro53nfSV65-20" value="" style="endArrow=none;html=1;rounded=0;entryX=0.5;entryY=0;entryDx=0;entryDy=0;" parent="1" target="au3N3AJ27wBfpIJDLOcN-2" edge="1">
          <mxGeometry width="50" height="50" relative="1" as="geometry">
            <mxPoint x="220" y="500" as="sourcePoint" />
            <mxPoint x="590" y="510" as="targetPoint" />
          </mxGeometry>
        </mxCell>
        <mxCell id="jF5xONTF4jro53nfSV65-21" value="10.100.200.150" style="edgeLabel;html=1;align=center;verticalAlign=middle;resizable=0;points=[];" parent="jF5xONTF4jro53nfSV65-20" vertex="1" connectable="0">
          <mxGeometry x="-0.2333" y="1" relative="1" as="geometry">
            <mxPoint x="39" as="offset" />
          </mxGeometry>
        </mxCell>
        <mxCell id="jF5xONTF4jro53nfSV65-23" value="10.100.200.137" style="edgeLabel;html=1;align=center;verticalAlign=middle;resizable=0;points=[];" parent="1" vertex="1" connectable="0">
          <mxGeometry x="895" y="510.0033333333333" as="geometry" />
        </mxCell>
        <mxCell id="jF5xONTF4jro53nfSV65-24" value="10.100.200.131" style="edgeLabel;html=1;align=center;verticalAlign=middle;resizable=0;points=[];" parent="1" vertex="1" connectable="0">
          <mxGeometry x="535" y="480.00333333333333" as="geometry" />
        </mxCell>
        <mxCell id="jF5xONTF4jro53nfSV65-25" value="PTP Client /&amp;nbsp;&lt;div&gt;TSN Switch&lt;/div&gt;" style="rounded=0;whiteSpace=wrap;html=1;" parent="1" vertex="1">
          <mxGeometry x="160" y="720" width="120" height="60" as="geometry" />
        </mxCell>
        <mxCell id="jF5xONTF4jro53nfSV65-26" value="PTP Server /&amp;nbsp;&lt;div&gt;TSN Switch&lt;/div&gt;" style="rounded=0;whiteSpace=wrap;html=1;" parent="1" vertex="1">
          <mxGeometry x="800" y="720" width="120" height="60" as="geometry" />
        </mxCell>
        <mxCell id="jF5xONTF4jro53nfSV65-27" value="" style="endArrow=none;html=1;rounded=0;entryX=0.5;entryY=0;entryDx=0;entryDy=0;exitX=0.5;exitY=1;exitDx=0;exitDy=0;" parent="1" source="au3N3AJ27wBfpIJDLOcN-2" target="jF5xONTF4jro53nfSV65-25" edge="1">
          <mxGeometry width="50" height="50" relative="1" as="geometry">
            <mxPoint x="221" y="580" as="sourcePoint" />
            <mxPoint x="220.5" y="781" as="targetPoint" />
          </mxGeometry>
        </mxCell>
        <mxCell id="jF5xONTF4jro53nfSV65-29" value="tsn-bridge-out" style="edgeLabel;html=1;align=center;verticalAlign=middle;resizable=0;points=[];" parent="jF5xONTF4jro53nfSV65-27" vertex="1" connectable="0">
          <mxGeometry x="-0.3229" relative="1" as="geometry">
            <mxPoint x="40" y="12" as="offset" />
          </mxGeometry>
        </mxCell>
        <mxCell id="jF5xONTF4jro53nfSV65-28" value="" style="endArrow=none;html=1;rounded=0;entryX=0.5;entryY=0;entryDx=0;entryDy=0;exitX=0.5;exitY=1;exitDx=0;exitDy=0;" parent="1" source="au3N3AJ27wBfpIJDLOcN-9" target="jF5xONTF4jro53nfSV65-26" edge="1">
          <mxGeometry width="50" height="50" relative="1" as="geometry">
            <mxPoint x="970" y="570" as="sourcePoint" />
            <mxPoint x="970" y="710" as="targetPoint" />
          </mxGeometry>
        </mxCell>
        <mxCell id="jF5xONTF4jro53nfSV65-30" value="" style="endArrow=none;html=1;rounded=0;entryX=0.5;entryY=0;entryDx=0;entryDy=0;" parent="1" edge="1">
          <mxGeometry width="50" height="50" relative="1" as="geometry">
            <mxPoint x="160" y="309.20000000000005" as="sourcePoint" />
            <mxPoint x="220" y="309.20000000000005" as="targetPoint" />
          </mxGeometry>
        </mxCell>
        <mxCell id="jF5xONTF4jro53nfSV65-31" value="Docker Network" style="edgeLabel;html=1;align=center;verticalAlign=middle;resizable=0;points=[];" parent="jF5xONTF4jro53nfSV65-30" vertex="1" connectable="0">
          <mxGeometry x="-0.3229" relative="1" as="geometry">
            <mxPoint x="100" as="offset" />
          </mxGeometry>
        </mxCell>
        <mxCell id="jF5xONTF4jro53nfSV65-32" value="tsn-bridge-in" style="edgeLabel;html=1;align=center;verticalAlign=middle;resizable=0;points=[];" parent="1" vertex="1" connectable="0">
          <mxGeometry x="900" y="640" as="geometry" />
        </mxCell>
        <mxCell id="jF5xONTF4jro53nfSV65-33" value="10.100.202.100" style="edgeLabel;html=1;align=center;verticalAlign=middle;resizable=0;points=[];" parent="1" vertex="1" connectable="0">
          <mxGeometry x="180" y="590" as="geometry" />
        </mxCell>
        <mxCell id="jF5xONTF4jro53nfSV65-34" value="10.100.202.200" style="edgeLabel;html=1;align=center;verticalAlign=middle;resizable=0;points=[];" parent="1" vertex="1" connectable="0">
          <mxGeometry x="180" y="710" as="geometry" />
        </mxCell>
        <mxCell id="jF5xONTF4jro53nfSV65-35" value="10.100.201.100" style="edgeLabel;html=1;align=center;verticalAlign=middle;resizable=0;points=[];" parent="1" vertex="1" connectable="0">
          <mxGeometry x="820" y="590" as="geometry" />
        </mxCell>
        <mxCell id="jF5xONTF4jro53nfSV65-36" value="10.100.201.200" style="edgeLabel;html=1;align=center;verticalAlign=middle;resizable=0;points=[];" parent="1" vertex="1" connectable="0">
          <mxGeometry x="820" y="710" as="geometry" />
        </mxCell>
        <mxCell id="PSzI8vPNecJgtFY46F7C-5" value="Unicast Two-Step&lt;br&gt;PTP" style="edgeLabel;html=1;align=center;verticalAlign=middle;resizable=0;points=[];" parent="1" vertex="1" connectable="0">
          <mxGeometry x="170" y="640" as="geometry">
            <mxPoint x="-6" y="2" as="offset" />
          </mxGeometry>
        </mxCell>
        <mxCell id="7bBMTvNNh8aVjN68kGi--2" value="Unicast Two-Step&lt;br&gt;PTP" style="edgeLabel;html=1;align=center;verticalAlign=middle;resizable=0;points=[];" parent="1" vertex="1" connectable="0">
          <mxGeometry x="810" y="640" as="geometry">
            <mxPoint x="-6" y="2" as="offset" />
          </mxGeometry>
        </mxCell>
      </root>
    </mxGraphModel>
  </diagram>
</mxfile>
